HIERARCHY
ROOT RootJoint
{
    OFFSET   0.000000   0.000000   0.000000
    CHANNELS 6 Xposition Yposition Zposition Xrotation Yrotation Zrotation
    JOINT pelvis_lowerback
    {
        OFFSET   0.000000   0.093605   0.000000
        CHANNELS 3 Xrotation Yrotation Zrotation
        JOINT lowerback_torso
        {
            OFFSET   0.000000   0.100000   0.000000
            CHANNELS 3 Xrotation Yrotation Zrotation
            JOINT torso_head
            {
                OFFSET   0.000000   0.282350   0.000000
                CHANNELS 3 Xrotation Yrotation Zrotation
                End Site
                {
                    OFFSET   0.000000   0.192650   0.000000
                }
            }
            JOINT rTorso_Clavicle
            {
                OFFSET  -0.001000   0.157500   0.000000
                CHANNELS 3 Xrotation Yrotation Zrotation
                JOINT rShoulder
                {
                    OFFSET  -0.117647   0.000000   0.000000
                    CHANNELS 3 Xrotation Yrotation Zrotation
                    JOINT rElbow
                    {
                        OFFSET  -0.245000   0.000000   0.000000
                        CHANNELS 3 Xrotation Yrotation Zrotation
                        JOINT rWrist
                        {
                            OFFSET  -0.240000   0.000000   0.000000
                            CHANNELS 3 Xrotation Yrotation Zrotation
                            End Site
                            {
                                OFFSET  -0.116353  -0.002500   0.000000
                            }
                        }
                    }
                }
            }
            JOINT lTorso_Clavicle
            {
                OFFSET   0.001000   0.157500   0.000000
                CHANNELS 3 Xrotation Yrotation Zrotation
                JOINT lShoulder
                {
                    OFFSET   0.117647   0.000000   0.000000
                    CHANNELS 3 Xrotation Yrotation Zrotation
                    JOINT lElbow
                    {
                        OFFSET   0.245000   0.000000   0.000000
                        CHANNELS 3 Xrotation Yrotation Zrotation
                        JOINT lWrist
                        {
                            OFFSET   0.240000   0.000000   0.000000
                            CHANNELS 3 Xrotation Yrotation Zrotation
                            End Site
                            {
                                OFFSET   0.116353  -0.002500   0.000000
                            }
                        }
                    }
                }
            }
        }
    }
    JOINT rHip
    {
        OFFSET  -0.100000  -0.051395   0.000000
        CHANNELS 3 Xrotation Yrotation Zrotation
        JOINT rKnee
        {
            OFFSET   0.000000  -0.410000   0.000000
            CHANNELS 3 Xrotation Yrotation Zrotation
            JOINT rAnkle
            {
                OFFSET   0.000000  -0.390000   0.000000
                CHANNELS 3 Xrotation Yrotation Zrotation
                JOINT rToeJoint
                {
                    OFFSET   0.000000  -0.050000   0.130000
                    CHANNELS 3 Xrotation Yrotation Zrotation
                    End Site
                    {
                        OFFSET  -0.010000   0.002000   0.060000
                    }
                }
            }
        }
    }
    JOINT lHip
    {
        OFFSET   0.100000  -0.051395   0.000000
        CHANNELS 3 Xrotation Yrotation Zrotation
        JOINT lKnee
        {
            OFFSET   0.000000  -0.410000   0.000000
            CHANNELS 3 Xrotation Yrotation Zrotation
            JOINT lAnkle
            {
                OFFSET   0.000000  -0.390000   0.000000
                CHANNELS 3 Xrotation Yrotation Zrotation
                JOINT lToeJoint
                {
                    OFFSET   0.000000  -0.050000   0.130000
                    CHANNELS 3 Xrotation Yrotation Zrotation
                    End Site
                    {
                        OFFSET   0.010000   0.002000   0.060000
                    }
                }
            }
        }
    }
}
MOTION
Frames: 5
Frame Time:   0.008333
 -2.559721   0.846284   4.077204   2.604172  17.605996  -2.205945  19.077426   0.219380   1.101247  -4.308494  -0.109304   2.437350  -6.495268  -7.016590   2.581128  -7.063869   7.482136   9.174158 -31.712222   6.560957  36.780733 -179.739324  87.369181 179.751399   1.002178   6.945810 -20.195733  -0.277044   1.622511  -9.368039  -7.037889   3.325417 -42.620865   0.183544 -69.805267   0.171851  -1.641854  -4.684118  21.921216 -39.575407  -0.635580  -7.912929  50.684579   0.008311  -0.066236 -10.883054   5.728107   3.325630  -1.458112  -0.000845   0.003258 -23.932025  -5.569664   2.256581  50.868262   0.008548  -0.006350 -30.094142  -0.379474   4.000415   0.894782  -0.000263   0.000975
 -2.558577   0.841745   4.074495   2.459089  17.434601  -2.222568  19.097686   0.178717   1.143269  -4.318349  -0.343566   2.693368  -6.564088  -6.833503   2.563920  -6.917056   7.512817   9.465764 -31.653215   6.135000  36.979942 -179.773277  87.039666 179.783983   0.936052   6.977120 -20.632899  -0.348235   0.781941  -9.533305  -7.302203   2.434401 -42.562524   0.191714 -70.924956   0.184110  -1.716816  -4.707267  22.132822 -40.659168  -0.516367  -8.543353  52.983435   0.011372  -0.067432 -10.870099   5.063790   3.341714  -1.512066  -0.000874   0.003235 -24.699910  -5.347265   2.218720  52.458919   0.008677  -0.005123 -30.788355  -0.463647   4.160415   0.873604  -0.000203   0.000780
 -2.557557   0.837254   4.071852   2.344618  17.304845  -2.259933  19.129789   0.143658   1.200288  -4.338133  -0.581443   2.952990  -6.631594  -6.657419   2.541684  -6.787358   7.548743   9.741066 -31.603386   5.737399  37.165058 -179.803012  86.734775 179.812543   0.870089   7.003628 -21.094617  -0.454498  -0.050210  -9.651478  -7.581189   1.560831 -42.491970   0.197202 -71.992338   0.193158  -1.745430  -4.828216  22.272812 -41.639325  -0.365871  -9.193227  55.228188   0.014447  -0.067600 -10.848950   4.441549   3.354918  -1.532595  -0.000786   0.002812 -25.474400  -5.152277   2.200812  53.990369   0.008756  -0.003842 -31.444977  -0.568999   4.306093   0.858082  -0.000157   0.000624
 -2.556627   0.832875   4.069307   2.263261  17.165122  -2.317563  19.162939   0.117381   1.264896  -4.361902  -0.804482   3.211457  -6.695101  -6.491873   2.520406  -6.668735   7.594359  10.003393 -31.556684   5.371508  37.343650 -179.828790  86.450361 179.837308   0.807460   7.031391 -21.533829  -0.575081  -0.844849  -9.744629  -7.858802   0.729739 -42.419651   0.200274 -72.998073   0.199082  -1.746962  -5.005402  22.405842 -42.513960  -0.201185  -9.835614  57.349699   0.016658  -0.067248 -10.827832   3.860631   3.366495  -1.548803  -0.000700   0.002423 -26.239940  -4.966642   2.207906  55.446940   0.008609  -0.002930 -32.065214  -0.662777   4.441375   0.846743  -0.000122   0.000499
 -2.555781   0.828639   4.066865   2.215873  16.999848  -2.391393  19.194892   0.100640   1.332763  -4.386817  -1.007694   3.464359  -6.754998  -6.337060   2.500777  -6.559319   7.646913  10.252633 -31.512045   5.034489  37.515707 -179.851086  86.184688 179.858713   0.748354   7.061216 -21.943959  -0.697334  -1.592778  -9.822022  -8.125505  -0.052134 -42.349662   0.201498 -73.941757   0.202484  -1.734132  -5.208020  22.545195 -43.292743  -0.031513 -10.461814  59.341459   0.017869  -0.066547 -10.807789   3.318178   3.376733  -1.563373  -0.000624   0.002091 -26.992669  -4.783294   2.237814  56.823534   0.008232  -0.002397 -32.649092  -0.735457   4.568387   0.838756  -0.000095   0.000399
